<svg id="_0568_team_presentation_6" xmlns="http://www.w3.org/2000/svg" xmlns:xlink="http://www.w3.org/1999/xlink" viewBox="0 0 500 500" data-imageid="team-presentation-6-80" imageName="Team Presentation 6" class="illustrations_image" style="width: 151px;"><defs><style>.cls-1_team-presentation-6-80{fill:url(#linear-gradient);}.cls-1_team-presentation-6-80,.cls-2_team-presentation-6-80,.cls-3_team-presentation-6-80,.cls-4_team-presentation-6-80,.cls-5_team-presentation-6-80,.cls-6_team-presentation-6-80,.cls-7_team-presentation-6-80,.cls-8_team-presentation-6-80,.cls-9_team-presentation-6-80,.cls-10_team-presentation-6-80,.cls-11_team-presentation-6-80,.cls-12_team-presentation-6-80,.cls-13_team-presentation-6-80,.cls-14_team-presentation-6-80,.cls-15_team-presentation-6-80,.cls-16_team-presentation-6-80,.cls-17_team-presentation-6-80,.cls-18_team-presentation-6-80,.cls-19_team-presentation-6-80,.cls-20_team-presentation-6-80,.cls-21_team-presentation-6-80,.cls-22_team-presentation-6-80,.cls-23_team-presentation-6-80,.cls-24_team-presentation-6-80,.cls-25_team-presentation-6-80,.cls-26_team-presentation-6-80{stroke-width:0px;}.cls-2_team-presentation-6-80{isolation:isolate;opacity:.18;}.cls-2_team-presentation-6-80,.cls-26_team-presentation-6-80{fill:#68e1fd;}.cls-3_team-presentation-6-80{fill:url(#linear-gradient-11-team-presentation-6-80);}.cls-4_team-presentation-6-80{fill:url(#linear-gradient-12-team-presentation-6-80);}.cls-5_team-presentation-6-80{fill:url(#linear-gradient-13-team-presentation-6-80);}.cls-6_team-presentation-6-80{fill:url(#linear-gradient-10-team-presentation-6-80);}.cls-7_team-presentation-6-80{fill:url(#linear-gradient-16-team-presentation-6-80);}.cls-8_team-presentation-6-80{fill:url(#linear-gradient-15-team-presentation-6-80);}.cls-9_team-presentation-6-80{fill:url(#linear-gradient-14-team-presentation-6-80);}.cls-10_team-presentation-6-80{opacity:.14;}.cls-10_team-presentation-6-80,.cls-20_team-presentation-6-80{fill:#231f20;}.cls-27_team-presentation-6-80{fill:none;stroke:#231f20;stroke-miterlimit:10;stroke-width:1.22px;}.cls-11_team-presentation-6-80{fill:url(#linear-gradient-4-team-presentation-6-80);}.cls-12_team-presentation-6-80{fill:url(#linear-gradient-2-team-presentation-6-80);}.cls-13_team-presentation-6-80{fill:url(#linear-gradient-3-team-presentation-6-80);}.cls-14_team-presentation-6-80{fill:url(#linear-gradient-8-team-presentation-6-80);}.cls-15_team-presentation-6-80{fill:url(#linear-gradient-9-team-presentation-6-80);}.cls-16_team-presentation-6-80{fill:url(#linear-gradient-7-team-presentation-6-80);}.cls-17_team-presentation-6-80{fill:url(#linear-gradient-5-team-presentation-6-80);}.cls-18_team-presentation-6-80{fill:url(#linear-gradient-6-team-presentation-6-80);}.cls-19_team-presentation-6-80{fill:#473f47;}.cls-21_team-presentation-6-80{fill:#c14834;}.cls-22_team-presentation-6-80{fill:#d8dae1;}.cls-23_team-presentation-6-80{fill:#8c6239;}.cls-24_team-presentation-6-80{fill:#fff;}.cls-25_team-presentation-6-80{fill:#ffaa71;}</style><linearGradient id="linear-gradient-team-presentation-6-80" x1="1651.74" y1="190.31" x2="1670.03" y2="456.35" gradientTransform="translate(1945.06) rotate(-180) scale(1 -1)" gradientUnits="userSpaceOnUse"><stop offset="0" stop-color="#231f20"/><stop offset=".08" stop-color="#231f20" stop-opacity=".69"/><stop offset=".21" stop-color="#231f20" stop-opacity=".32"/><stop offset="1" stop-color="#231f20" stop-opacity="0"/></linearGradient><linearGradient id="linear-gradient-2-team-presentation-6-80" x1="856.92" y1="4784.69" x2="840.59" y2="4564.27" gradientTransform="translate(1000.16 5029.39) rotate(-180)" xlink:href="#linear-gradient-team-presentation-6-80"/><linearGradient id="linear-gradient-3-team-presentation-6-80" x1="1614.8" y1="346.78" x2="1654.9" y2="357.09" xlink:href="#linear-gradient-team-presentation-6-80"/><linearGradient id="linear-gradient-4-team-presentation-6-80" x1="1595.72" y1="356.43" x2="1635.82" y2="366.75" xlink:href="#linear-gradient-team-presentation-6-80"/><linearGradient id="linear-gradient-5-team-presentation-6-80" x1="1667.01" y1="324.59" x2="1693.13" y2="373.86" xlink:href="#linear-gradient-team-presentation-6-80"/><linearGradient id="linear-gradient-6-team-presentation-6-80" x1="1664.69" y1="288.35" x2="1707.31" y2="346.44" gradientTransform="translate(-1414.96 618.45) scale(1 -1)" xlink:href="#linear-gradient-team-presentation-6-80"/><linearGradient id="linear-gradient-7-team-presentation-6-80" x1="1679.94" y1="158.15" x2="1688.45" y2="423.02" xlink:href="#linear-gradient-team-presentation-6-80"/><linearGradient id="linear-gradient-8-team-presentation-6-80" x1="344.58" y1="369.22" x2="341.83" y2="341.04" gradientUnits="userSpaceOnUse"><stop offset="0" stop-color="#000" stop-opacity="0"/><stop offset=".99" stop-color="#000"/></linearGradient><linearGradient id="linear-gradient-9-team-presentation-6-80" x1="308.25" y1="279.04" x2="344.91" y2="386.73" xlink:href="#linear-gradient-8-team-presentation-6-80"/><linearGradient id="linear-gradient-10-team-presentation-6-80" x1="1536.38" y1="360.02" x2="1641.37" y2="255.03" xlink:href="#linear-gradient-team-presentation-6-80"/><linearGradient id="linear-gradient-11-team-presentation-6-80" x1="1546.25" y1="303.25" x2="1592.07" y2="303.25" gradientTransform="translate(1945.06) rotate(-180) scale(1 -1)" xlink:href="#linear-gradient-8-team-presentation-6-80"/><linearGradient id="linear-gradient-12-team-presentation-6-80" x1="1522.42" y1="368.67" x2="1519.67" y2="340.49" gradientTransform="translate(1669.65) rotate(-180) scale(1 -1)" xlink:href="#linear-gradient-8-team-presentation-6-80"/><linearGradient id="linear-gradient-13-team-presentation-6-80" x1="135.45" y1="355.3" x2="202.59" y2="310.85" gradientTransform="matrix(1,0,0,1,0,0)" xlink:href="#linear-gradient-team-presentation-6-80"/><linearGradient id="linear-gradient-14-team-presentation-6-80" x1="159.21" y1="321.3" x2="130.34" y2="347.77" xlink:href="#linear-gradient-8-team-presentation-6-80"/><linearGradient id="linear-gradient-15-team-presentation-6-80" x1="358.55" y1="359.48" x2="463.53" y2="254.49" gradientTransform="translate(-275.41)" xlink:href="#linear-gradient-team-presentation-6-80"/><linearGradient id="linear-gradient-16-team-presentation-6-80" x1="368.41" y1="302.71" x2="414.23" y2="302.71" gradientTransform="translate(-275.41)" xlink:href="#linear-gradient-8-team-presentation-6-80"/></defs><g id="background_team-presentation-6-80"><path class="cls-2_team-presentation-6-80 targetColor" d="M303.39,71.9c18.1,3.91,36.16,9.44,51.66,19.58,42.12,27.56,56.65,82.18,90.15,119.74,14.61,16.38,33.36,30.26,41.11,50.79,6.16,16.31,4.39,34.45,1.57,51.66-2.6,15.87-6.02,31.61-10.23,47.13-2.59,9.54-5.55,19.16-11.1,27.35-16.61,24.52-50.49,29.17-80.11,28.88-30.27-.3-60.51-3.37-90.23-9.15-14.9-2.9-29.73-6.49-44.87-7.56-32.87-2.32-65.22,7.3-97.68,12.98-32.46,5.68-68,6.89-96.09-10.34-21.54-13.22-36.32-36.9-38.7-62.07-1.74-18.38,2.75-36.74,7.58-54.56,6.23-23,13.08-45.83,20.53-68.46,5.76-17.47,11.94-34.96,21.39-50.73,42.26-70.55,157.87-111.89,235-95.23Z" style="fill: rgb(104, 225, 253);"/><path class="cls-1_team-presentation-6-80" d="M376.5,349.87c-7.36,2.48-14.4,5.87-14.2,9.36.22,3.9-29.79,4.6-32.73,4.2.55-1.25.09-3.26.6-4.47-11.65-2.78-21.23-5.7-32.39-9.86-13.93-5.19-30.49-5.92-45.18-7.34-32.7-3.17-66.18-2.57-97.97,6.47-6.88,1.96-13.68,4.31-19.96,7.73-1.77.96-3.58,2.1-4.5,3.89-1.77,3.46.56,7.66,3.47,10.24,4.51,4,10.37,6.08,16.16,7.74,18.94,5.44,38.89,7.34,58.51,5.6,8.59-.76,17.27-2.22,25.77-.77,8.47,1.45,16.2,5.69,24.51,7.89,8.31,2.2,18.26,1.86,24.12-4.42,1.45-1.56,2.63-3.46,4.5-4.49,2.34-1.29,5.21-.93,7.86-.56,24.84,3.45,50.13,3.62,75.01.53,2.04-.25,4.28-.65,5.55-2.27.95-1.21,1.14-2.91,2.16-4.06,1.37-1.55,3.71-1.63,5.78-1.62,12.29.06,24.59-.72,36.78-2.33,3.22-.43,6.56-.95,9.26-2.76,2.7-1.81,4.59-5.26,3.57-8.35-.64-1.94-2.26-3.38-3.88-4.61-10.64-8.11-24.6-11.27-37.78-9.56-2.58.34-8.91,1.76-15.01,3.82Z"/><path class="cls-12_team-presentation-6-80" d="M159.01,331.35c11.34,1.75,22.66,3.64,33.95,5.68,7.45,1.34,15.08,2.81,21.5,6.81,2.21,1.37,4.36,3.28,4.68,5.84.35,2.84-1.8,5.51-4.4,6.7s-5.56,1.24-8.43,1.24l-74.2.45c-15.73.1-32.86-.28-45.04-10.23-1.98-1.61-3.83-3.54-4.59-5.97s-.17-5.43,1.94-6.85c1.4-.76,2.97-1.16,4.56-1.15l33.57-2.59"/></g><g id="_character_1_team-presentation-6-80"><path class="cls-25_team-presentation-6-80" d="M147.48,325.44c6.25-1.42,5.03,7.45,6.67,10.74.87,1.76,2.45,3.04,3.86,4.43,1.41,1.38,2.73,3.07,2.81,5.04.03.37-.04.74-.22,1.06-.31.39-.75.66-1.24.75-3.57,1.04-7.4.66-10.7-1.05-1.54-.74-2.82-1.92-3.67-3.41-.68-1.59-1.01-3.31-.95-5.04-.14-3.7-1.78-11.35,3.43-12.51Z"/><path class="cls-26_team-presentation-6-80 targetColor" d="M153.01,343.68s17.78.76,10.25,6.34c-7.53,5.59-18.78-1.37-19.87-2.64s-.21-3.46-.21-3.46l9.83-.25Z" style="fill: rgb(104, 225, 253);"/><path class="cls-24_team-presentation-6-80" d="M144.17,346.14c1.59,1.93,9.94,4.53,13.64,4.26s7.02-1.99,6.66-4.38-6.9-7.96-8.12-7.94-2.21,2.86-4.67,3.45c-2.24.37-4.52-.45-6.02-2.16-.46-.64-1.31-.86-2.02-.53-.85,1.23-1.05,5.36.54,7.29Z"/><path class="cls-25_team-presentation-6-80" d="M126.04,328.94c6.25-1.45,5.03,7.41,6.67,10.7.86,1.77,2.45,3.05,3.86,4.44,1.41,1.38,2.73,3.07,2.81,5.04.04.37-.04.74-.21,1.06-.31.39-.75.66-1.24.75-3.57,1.04-7.4.66-10.7-1.05-1.54-.74-2.82-1.93-3.67-3.41-.68-1.59-1-3.31-.95-5.04-.14-3.74-1.78-11.36,3.43-12.48Z"/><path class="cls-26_team-presentation-6-80 targetColor" d="M131.57,347.1s17.78.75,10.25,6.34c-7.53,5.6-18.78-1.36-19.87-2.63s-.21-3.46-.21-3.46l9.83-.25Z" style="fill: rgb(104, 225, 253);"/><path class="cls-24_team-presentation-6-80" d="M122.73,349.52c1.59,1.94,9.94,4.53,13.64,4.27,3.7-.26,7.02-1.98,6.66-4.38-.36-2.39-6.9-7.96-8.12-7.94s-2.21,2.86-4.67,3.44c-2.24.37-4.52-.45-6.02-2.16-.46-.63-1.31-.85-2.02-.52-.85,1.25-1.05,5.34.54,7.28Z"/><path class="cls-19_team-presentation-6-80" d="M142.16,248.27l-8.35,87.93-12.05-1.49c-4.76-21.45-3.59-85.64-3.59-85.64l23.99-.8Z"/><path class="cls-19_team-presentation-6-80" d="M133.8,245.89l8.35,87.93,12.07-1.49c6.89-55.64,1.21-90.28,1.21-90.28l-21.63,3.83Z"/><path class="cls-24_team-presentation-6-80" d="M154.38,214.1c.15-1.61.58-3.21.75-4.86.39-3.32.33-6.67-.19-9.97-.56-3.52-1.62-6.94-3.14-10.16-1.39-2.79-3.9-3.97-6.72-5.37-2.36-1.28-4.93-2.15-7.58-2.58-1.87-.17-3.76-.07-5.6.31-5.68,1.08-13.16,4.01-17.03,8.48-2.91,3.37-3.26,8.18-3.35,12.63-.12,6.14,0,12.28.38,18.42.05.89.11,1.78.18,2.67.52,6.73,1.07,13.72,2.99,20.22.6,2.04,1.24,4.09,3.13,5.18,4.44,2.58,11.23,1.16,16.03.49,6.37-.91,12.9-1.85,18.55-4.94,1.18-.51,2.13-1.43,2.68-2.58.49-1.38-.11-2.88-.53-4.29-1.91-6.28-.43-12.89-.43-19.3,0-1.16-.15-2.35-.15-3.51,0-.29.05-.58.05-.87Z"/><path class="cls-10_team-presentation-6-80" d="M142.97,187.06c.26,2.15-.17,4.31-.24,6.47-.06,1.97.18,3.94.08,5.91-.17,3.31-1.34,6.56-3.32,9.22,5.21-1.09,10.42-2.19,15.63-3.28.31-.07.66-.16.83-.43.16-.26.1-.59.03-.89-.45-2.05-.9-4.1-1.36-6.15-.66-3.01-1.37-6.11-3.11-8.65-1.66-2.41-4.11-4.08-6.64-5.46-.58-.31-2.58-1.75-3.13-.78-.26.45,1.14,3.31,1.23,4.04Z"/><path class="cls-25_team-presentation-6-80" d="M150.93,202.29c1.55-.98,3.61-1.13,5.26-.32,1.65.81,2.79,2.59,2.78,4.42-.01,1.24-.51,2.43-1.17,3.48-.41.66-.9,1.29-1.54,1.73-.96.64-2.18.78-3.34.7-1.04-.07-2.08-.31-2.99-.82-1.36-.77-3.14-2.97-2.68-4.69.41-1.54,2.36-3.67,3.68-4.5Z"/><path class="cls-10_team-presentation-6-80" d="M129.11,243.25c.77-2.49,1.55-4.64,1.43-7.55-.17-2.44-.54-4.87-1.11-7.25l-4.07-19.39c-.74-3.56-2.35-20.7-7.78-18.74-3.07,1.11-5.28,3.97-6.36,7.07s-1.13,6.43-1.13,9.72c.1,8.48,1.79,17.28,2.89,25.77.42,3.21.92,15.13,5.17,16.19.82.21,1.65.63,2.47.78,1.42.26,5.71,1.96,7.57,1.41.31-.08.58-.27.74-.55,1.1-2.17-.67-6.41-.67-8.84,0-3.93,1.97-7.7,4.52-10.58,2.85-3.22,6.51-5.6,10.12-7.93,1.66-1.08,3.33-2.15,4.99-3.23.86-.56,1.79-1.13,2.81-1.11.7.02,1.4.32,2.1.2,1.09-.19,1.73-1.3,2.13-2.33.96-2.46,1.41-5.12,1.31-7.76-.01-.34-.06-.72-.32-.94-.31-.25-.76-.14-1.14-.02-5.23,1.64-10.47,3.28-15.7,4.91-2.37.74-4.84,1.49-7.29,1.09s-4.84-2.32-4.88-4.8"/><path class="cls-24_team-presentation-6-80" d="M113.26,191.73c-5.15,8.52-6.95,18.59-8.64,28.41-.21,1.21-.42,2.46-.15,3.66.48,2.19,2.49,3.79,4.65,4.43s4.45.5,6.69.36c4.8-.31,10.49-.73,14.56-3.51,1.4-.96,2.64-2.14,4.07-3.05,1.36-.87,2.86-1.48,4.32-2.16,2.84-1.32,5.56-2.91,8.1-4.74.83-.6,1.68-1.26,2.13-2.17.83-1.66.18-3.64-.47-5.37-.16-.43-.35-.89-.75-1.11-.47-.27-1.07-.12-1.59.03-6.86,2.04-13.87,3.6-20.95,4.69-1.95.3-1.09-1.83-.84-2.94.36-1.57.83-3.12,1.03-4.73.54-4.57-1.36-9.36-4.9-12.3-.94-.78-2.05-1.46-3.27-1.54s-3.35,1-3.98,2.05Z"/><path class="cls-25_team-presentation-6-80" d="M142.13,172.34c-.02-1.69-.13-3.4-.31-5.04-.16-1.46-.39-2.94-.67-4.39-.19-.94-.3-1.65-1.12-2.22-2.26-1.39-4.86-2.1-7.51-2.06-2,0-4.15.48-5.47,1.97-.9,1.15-1.43,2.55-1.51,4.01-.4,3.69.56,7.37,1.09,11.05.42,2.85.57,5.73.45,8.6,1.39.92,2.98,1.48,4.64,1.65.78,0,1.54-.14,2.28-.39.41-.08.78-.32,1.02-.67.11-.3.14-.63.08-.95-.03-.3-.08-.6-.08-.91h0c-.12-1.68-.09-3.37.1-5.04,0-.14.05-.28.15-.38.11-.06.23-.08.35-.06h.47c.84.06,1.68.05,2.52-.04,1-.11,1.93-.57,2.62-1.31.88-.98.96-2.48.92-3.82Z"/><path class="cls-10_team-presentation-6-80" d="M140.3,172.58c-.17-.26-.44-.56-.74-.47-.22.07-.31.32-.39.53-.33.9-.83,1.74-1.46,2.45-.39.44-.83.82-1.26,1.21-.28.24-.55.49-.83.73.76.24,1.53.49,2.32.52s1.63-.19,2.19-.75c.33-.34.55-.77.76-1.2.2-.42.41-.85.47-1.31s-.06-.98-.41-1.28"/><path class="cls-20_team-presentation-6-80" d="M138.76,161.34c1.37-.33,3.36-.48,4.05-1.78.64-1.21-.09-2.72-1.05-3.7-1.9-1.94-4.78-2.87-7.45-2.41-.85.15-1.68.42-2.53.47-1.14.06-2.27-.28-3.42-.31-2-.05-3.93.86-5.51,2.1-1.07.84-2.03,1.85-3.28,2.38s-2.93.39-3.67-.74c-.48,1.6-.21,3.41.72,4.8-.45.48-1.26.55-1.79.16.07,1.95.52,3.88,1.32,5.66-.73.06-1.47.03-2.2-.11.79,1.99,2.41,3.64,4.39,4.46,2.68,1.11,5.67,1.18,7.64,3.54.24.3.49.99.91,1.06s.71-.36.82-.75c.46-1.67.34-3.44-.34-5.03-.48-.77-.76-1.65-.82-2.56.09-.9,1.31-1.6,1.89-1.08s.69,1.82,1.41,1.56c-.82-2.56.25-5.79,2.72-6.8,1.9-.75,3.98-.3,5.91-.86.09-.03.19-.05.3-.08Z"/><path class="cls-10_team-presentation-6-80" d="M136.07,177.52c-1.95-.36-3.85-.93-5.69-1.69-.16,5.93,4.66,7.16,4.66,7.16h0c-.12-1.68-.09-3.37.1-5.04,0-.14.05-.28.15-.38.11-.06.23-.08.35-.06h.47-.03Z"/><path class="cls-24_team-presentation-6-80" d="M167.6,201.99c.49.98.97,2.01,1.06,3.1.17,2.12-1.16,4.1-2.76,5.5-2.29,2-5.26,3.2-8.29,3.35-.78.04-1.6,0-2.3-.34-1.05-.52-1.65-1.64-2.16-2.7-3.78-7.78-7.92-17.42-8.31-26.19-.12-2.73,2.27-7.52,5.46-5.72,3.52,1.99,6.78,6.87,9.2,10.03,3.11,4.05,5.83,8.4,8.1,12.96Z"/><path class="cls-25_team-presentation-6-80" d="M140.82,179.92c.33.11.65.23.96.4.98.54,1.97,1.08,2.95,1.62.14.08.29.16.45.19.17.03.34,0,.5-.03,4.18-.86,4.21-6.33.82-8.23-.62-.35-1.29-.62-1.82-1.09-.49-.44-.81-1.04-1.27-1.52s-1.14-.84-1.77-.62c-.57.2-.89.8-1.04,1.39s-.18,1.2-.45,1.75c-.17.35-.43.66-.68.96-.38.48-.73.98-1.05,1.51-.31.52-.6,1.11-.49,1.71.12.69.75,1.19,1.4,1.46.48.2.98.33,1.47.5Z"/></g><g id="_character_4_team-presentation-6-80"><ellipse class="cls-20_team-presentation-6-80" cx="385.25" cy="354.96" rx="21.59" ry="5.14"/><path class="cls-26_team-presentation-6-80 targetColor" d="M327.45,346.62v7.39h-26.47s1.55-5.67,12.03-7.39l3.44-2.8,11,2.8Z" style="fill: rgb(104, 225, 253);"/><path class="cls-13_team-presentation-6-80" d="M327.45,346.62v7.39h-26.47s1.55-5.67,12.03-7.39l3.44-2.8,11,2.8Z"/><rect class="cls-26_team-presentation-6-80 targetColor" x="300.13" y="354.01" width="28.53" height="1.89" transform="translate(628.78 709.91) rotate(-180)" style="fill: rgb(104, 225, 253);"/><rect class="cls-20_team-presentation-6-80" x="383.18" y="312.31" width="4.14" height="38.33"/><path class="cls-20_team-presentation-6-80" d="M363.67,354.96c0,2.84,9.66,5.14,21.59,5.14s21.59-2.3,21.59-5.14c0-.26.15-2.95,0-3.2-1.54-2.48-10.74-1.94-21.59-1.94-10.43,0-19.57-.4-21.59,1.94-.29.33,0,2.84,0,3.2Z"/><ellipse class="cls-20_team-presentation-6-80" cx="385.25" cy="351.76" rx="21.59" ry="5.14"/><path class="cls-20_team-presentation-6-80" d="M378.67,305.32h35.71s8.55-46.42,8.55-46.42c.63-3.41-1.99-6.56-5.46-6.56h-24.41c-2.68,0-4.98,1.91-5.46,4.55l-8.92,48.43Z"/><path class="cls-20_team-presentation-6-80" d="M369.16,305.32h35.71s8.55-46.42,8.55-46.42c.63-3.41-1.99-6.56-5.46-6.56h-24.41c-2.68,0-4.98,1.91-5.46,4.55l-8.92,48.43Z"/><rect class="cls-20_team-presentation-6-80" x="374.89" y="298.33" width="39.72" height="13.99" rx="7" ry="7"/><rect class="cls-20_team-presentation-6-80" x="359.16" y="298.33" width="39.72" height="13.99" rx="7" ry="7"/><path class="cls-24_team-presentation-6-80" d="M397.32,239.98c-.25-.31-.52-.61-.82-.88-4.18-4-10.98-3.58-15.24-3.45-3.78.17-7.56.06-11.32-.33-.53-.08-1.08-.14-1.62-.2l-.53-.06c-2.82-.3-6.21-.27-7.15,2.64-1.1,3.48-1.2,7.64-1.72,11.25-1.51,10.78-2.35,21.31-2.81,32.13-.42,9.56,12.28,10.32,19.11,10.32,2.31.06,4.63-.08,6.92-.41,2.1-.36,4-1.19,6.11-1.61,1.09-.12,2.12-.54,2.97-1.22,1.16-1.13,1.16-2.96,1.16-4.59-.04-4.11.3-8.22,1-12.27.38-2.02.97-3.98,1.32-5.98.39-1.64.95-3.23,1.66-4.76,2.88-7.26,5.15-15.49.94-20.57Z"/><path class="cls-24_team-presentation-6-80" d="M346.01,240.95c.25-.92.66-1.8,1.22-2.58,1.31-1.65,3.65-2.01,5.76-2.16.98-.09,2.18,0,2.65.84.21.48.27,1.01.18,1.53-.14,1.74-.63,3.7-.47,5.42,1.38-.87,2.88-1.55,4.45-2,.42-.13,4.63-.61,4.69,0,.23,2.61.34,5.23.34,7.85.18,1.92-.43,3.83-1.68,5.3-2.23,3.12-4.71,6.04-7.43,8.74-2.91,2.9-6.84,4.54-10.95,4.59-1.3.03-2.79-.19-3.51-1.28-.39-.71-.56-1.52-.5-2.33,0-2.31.2-4.61.56-6.88.9-5.8,2.79-11.49,4.68-17.05Z"/><path class="cls-22_team-presentation-6-80" d="M349.52,245.98c.21-1.51,0-5.05,1.25-5.99.07-.04.14-.08.21-.12,1.12-.54,2.46-.07,3,1.05.19.65.24,1.34.13,2.02-.11,1.63-.07,3.27.13,4.89.12.98.44,2.12,1.38,2.44.67.14,1.36.01,1.94-.35,1.65-.8,3.18-1.8,4.57-3,.31-.26.69-.55,1.08-.42.23.11.42.29.53.52l10.05,15.53c.84,1.3,1.6,3.25.65,4.29-.96,1.04-2.7.68-4.02.1-3.89-1.71-7.37-4.21-10.22-7.35-.19-.27-.46-.46-.77-.56-.43-.01-.85.15-1.15.45-1.83,1.35-3.78,2.52-5.82,3.51-1.53.69-3.69,1.18-4.62-.24-.38-.79-.47-1.7-.25-2.55l1.94-14.22Z"/><path class="cls-22_team-presentation-6-80" d="M386.55,249.98c.73-1.86,1.91-3.51,3.45-4.79,1.6-1.29,3.8-1.52,5.63-.58,2.36,1.43,2.56,4.75,2.26,7.5-.43,3.92-1.29,7.78-2.56,11.51-.64,1.85-1.66,3.6-2.22,5.48-.46,1.51-.52,3.11-.98,4.69-1.17,3.9-1.8,7.95-1.88,12.02.03.54-.06,1.07-.27,1.57-.23.5-.78.77-1.31.64-.3-.15-.56-.39-.74-.68-2.56-3.31-7.03-4.4-11.19-4.9-4.88-.6-9.81-.7-14.71-1-2.01-.12-4.5-.71-4.82-2.68-.1-1.16.47-2.28,1.48-2.88.99-.58,2.09-.95,3.23-1.09,4.37-.82,8.96-1.5,12.59-4.06-1.32-.39-2.54-1.06-3.57-1.97,2.35,1.53,6.15-3.49,7.79-4.76,1.47-1.19,2.7-2.66,3.61-4.32,1.73-2.98,2.8-6.52,4.22-9.68Z"/><path class="cls-26_team-presentation-6-80 targetColor" d="M373.85,238.41c.53-.12,1.09-.05,1.58.21.48.25,1.01.39,1.56.39.02.04.05.09.07.13.66,1.41.05,3.08-1.36,3.74-.3.1-.58.24-.84.41-.39.48-.56,1.1-.46,1.72.09,5.07-1.4,10.02-2.57,14.95-1.37,5.74-2.33,11.69-1.45,17.54.07.31.07.63,0,.94-.1.21-.23.41-.39.58l-2.56,2.92c-.77-1.18-2.53-1.6-2.94-2.95-.1-.39-.13-.79-.08-1.18.29-5.47,1.56-10.82,2.81-16.14,1.29-6.07,3.02-12.04,5.18-17.86.11-.21.15-.45.14-.68-.06-.22-.17-.42-.31-.59-.68-1.12.5-3.67,1.65-4.11Z" style="fill: rgb(104, 225, 253);"/><path class="cls-24_team-presentation-6-80" d="M387.06,235.59c-3.63-.33-7.25-.55-10.89-.67-2.4-.08-5.59-.71-7.83.23.54.06,1.09.12,1.62.2,3.76.39,7.54.5,11.32.33,4.26-.13,11.06-.55,15.24,3.45-2.23-2.64-6.02-3.23-9.46-3.54Z"/><path class="cls-23_team-presentation-6-80" d="M383.92,224.65c.32.3.79.31,1.17.12-.51,2.77-.94,5.21.35,7.92.54,1.13,1.36,2.21,2.54,2.64-2.63.38-4.57,1.39-7,2.32-1.43.55-3.03,1.07-4.58.98-.16,0-2.94-.63-2.53-1.24,2.21-3.25.45-8.64.45-8.64,3.83,1.13,7.88-.88,9.31-4.6.04.19.14.37.28.5Z"/><path class="cls-21_team-presentation-6-80" d="M381.54,203.98s-14.99-1.05-15.28,9.38c-.06,2.16.13,4.32.57,6.43.15.74.33,1.46.53,2.16,1.93,6.36,6.19,10.66,11.41,9.12,9.09-2.66,14.89-24.37,2.76-27.09Z"/><path class="cls-20_team-presentation-6-80" d="M385.82,221.65c1.15-1.01,1.39-2.9.53-4.16-.14-.2-.3-.39-.51-.52-.49-.31-1.15-.22-1.66.06-.4.23-.94,1.04-1.44.53-.27-.27-.28-.69-.23-1.07.13-1.01.57-1.98,1.26-2.73-.79-.27-1.43-.93-1.68-1.73-1.38.29-2.8.37-4.21.26-.33-.03-.67-.07-.97-.22-.72-.36-1.02-1.25-1.67-1.73-.81-.59-1.92-.4-2.92-.38s-2.23-.37-2.38-1.36c-1.76.78-4.08-.16-4.79-1.95-.97.21-2.12.37-2.82-.32-.64-.63-.59-1.66-.42-2.53.35-1.86,1.23-3.86,3.01-4.54-1.04-.55-1.03-2.01-.87-3.18.04-.33.09-.68.27-.96.49-.79,1.62-.76,2.49-1.08.85-.31,1.5-.99,2.32-1.38s1.99-.35,2.39.45c1.11-.55,2.25-1.11,3.49-1.2s2.6.42,3.16,1.52c.63-.3,1.28-.6,1.98-.61s1.45.37,1.64,1.04c.04.15.07.33.2.41.13.08.29.03.43-.02.97-.32,2.03-.48,3.01-.19s1.84,1.14,1.9,2.16c1.18.34,2.29.95,3.2,1.78.89.81,1.64,2.07,1.18,3.18,1.64,1.55,1.75,4.44.23,6.11.47.17.69.74.64,1.23-.06.5-.33.93-.61,1.35-.09.13-.18.28-.16.43.02.2.21.34.36.48.94.86.61,2.68-.57,3.15.61.53,1.14,1.26,1.11,2.07s-.84,1.6-1.61,1.34c.36.9.2,1.98-.4,2.74-.75.95-1.55.64-2.45,1.05-.78.36-1.31,1.75-1.93,2.44-.14-.66-.3-1.31-.47-1.96Z"/><path class="cls-20_team-presentation-6-80" d="M354.14,283.55l-20.56,10.53-17.13,49.44,10.32,6.35,20.23-41.04s18.87-5.75,23.97-7.42,11.45-17.54,11.45-17.54c-23.01-.17-28.27-.32-28.27-.32Z"/><path class="cls-20_team-presentation-6-80" d="M370.44,285.22l-20.55,10.53-14.36,57.73,11,2.8,16.82-45.79s18.86-5.76,23.96-7.43,3.91-16.14,3.91-16.14c-8.84-6.05-20.78-1.7-20.78-1.7Z"/><path class="cls-24_team-presentation-6-80" d="M391.17,237.93c-3.22-.77-11.14,16.05-11.14,16.05l-12.78-12.85-7.61,2.87s11.43,28.12,20.92,25.41c9.49-2.71,18.45-22.78,18.45-22.78,1.21-3.45-4.61-7.94-7.83-8.71Z"/><path class="cls-23_team-presentation-6-80" d="M352.54,229.22c-.9.78-1.63,1.74-2.15,2.81-.58,1.13-1.05,2.31-1.39,3.54-.31.93-.43,1.92-.33,2.9.11.99.68,1.87,1.54,2.37,1.33.53,2.85.12,3.75-.99.85-1.11,1.4-2.42,1.61-3.81.18-1.38.57-2.72,1.17-3.98.51-.6.84-1.34.94-2.12-.18-2.79-3.84-1.84-5.15-.72Z"/><path class="cls-21_team-presentation-6-80" d="M365.07,239.32c.58,2.95-2.65,4.14-5.13,3.56-.75-.15-1.45-.47-2.05-.94-1.43-1.13-1.88-3.09-2.81-4.64-.67-1.1-1.58-2.02-2.23-3.11-.74-1.07-.88-2.45-.37-3.65.81-1.47,2.78-1.78,4.46-1.78.86-.08,1.73.04,2.54.36.85.48,1.55,1.18,2.02,2.03,1.66,2.49,2.87,5.26,3.57,8.17Z"/><path class="cls-26_team-presentation-6-80 targetColor" d="M346.53,356.27v7.39h-26.47s1.55-5.67,12.03-7.39l3.44-2.8,11,2.8Z" style="fill: rgb(104, 225, 253);"/><path class="cls-11_team-presentation-6-80" d="M346.53,356.27v7.39h-26.47s1.55-5.67,12.03-7.39l3.44-2.8,11,2.8Z"/><rect class="cls-26_team-presentation-6-80 targetColor" x="319.2" y="363.66" width="28.53" height="1.89" transform="translate(666.93 729.21) rotate(-180)" style="fill: rgb(104, 225, 253);"/><path class="cls-24_team-presentation-6-80" d="M385.72,234.08c.4-.08.82-.14,1.19.02.62.26.89,1.05,1.52,1.29-1.46,1.34-3.43,1.95-5.11,3.01-1.79,1.13-3.21,2.74-4.61,4.32-1.58-.87-1.48-3.32-2.86-4.49.76,0,2.07-.86,2.77-1.18s1.33-.7,1.98-1.11c1.55-.99,3.33-1.51,5.12-1.86Z"/><path class="cls-24_team-presentation-6-80" d="M372.15,235c-.52.42-.93.95-1.34,1.47-.52.66-1.04,1.33-1.57,1.99-.14.17-.28.38-.23.6.06.26.38.38.65.34s.5-.19.76-.27c.56-.19,1.17-.07,1.76-.1.73-.04,1.42-.29,2.1-.55.08-.03.16-.06.2-.13.04-.07.04-.16.03-.24-.05-.71.08-1.38.31-2.05.17-.49.5-1.05.17-1.55-.62-.96-2.23-.02-2.85.49Z"/></g><g id="table_team-presentation-6-80"><path class="cls-26_team-presentation-6-80 targetColor" d="M243.49,352.24c0,2.84,9.66,5.14,21.59,5.14,11.92,0,21.59-2.3,21.59-5.14,0-.26.15-2.95,0-3.2-1.54-2.48-10.74-1.94-21.59-1.94-10.43,0-19.57-.4-21.59,1.94-.29.33,0,2.84,0,3.2Z" style="fill: rgb(104, 225, 253);"/><ellipse class="cls-26_team-presentation-6-80 targetColor" cx="265.08" cy="349.04" rx="21.59" ry="5.14" style="fill: rgb(104, 225, 253);"/><ellipse class="cls-17_team-presentation-6-80" cx="265.08" cy="349.04" rx="21.59" ry="5.14"/><rect class="cls-26_team-presentation-6-80 targetColor" x="262.54" y="300.84" width="5.01" height="48.56" transform="translate(530.1 650.24) rotate(-180)" style="fill: rgb(104, 225, 253);"/><rect class="cls-18_team-presentation-6-80" x="262.54" y="300.84" width="5.01" height="16.77" transform="translate(530.1 618.45) rotate(-180)"/><path class="cls-26_team-presentation-6-80 targetColor" d="M142.53,288.03c0,10.44,52.94,18.91,118.25,18.91,65.31,0,118.25-8.46,118.25-18.91,0-.43.18-5.68,0-6.1-4.13-9.84-55.64-12.81-118.25-12.81-61.22,0-112.19,3.27-118.25,12.81-.4.64,0,5.45,0,6.1Z" style="fill: rgb(104, 225, 253);"/><path class="cls-16_team-presentation-6-80" d="M379.03,288.03c0,10.44-52.94,18.91-118.25,18.91-65.31,0-118.25-8.46-118.25-18.91,0-1.21-.13-2.48,0-3.68.08-.75.47-1.43.85-2.09.8-1.37,1.7-2.83,3.17-3.42.85-.34,1.79-.35,2.71-.35,2.73,0,5.47.06,8.2.17,3.76.16,7.52.42,11.25.96,2.79.4,5.56.96,8.37,1.13,5.79.33,11.54-1.02,17.34-1.27.43-.02.87-.03,1.28.07.47.11.9.37,1.33.59,2.08,1.07,4.49,1.47,6.8,1.14,21.03,1.43,42,0,62.94-2.43,17.49-2.04,34.97-4.52,52.58-4.97,18.38-.47,36.83,1.28,54.79,5.2,2.43.53,5.39,1.7,5.51,4.19.08,1.74-1.73,3.43-.62,4.78Z"/><ellipse class="cls-26_team-presentation-6-80 targetColor" cx="260.78" cy="281.93" rx="118.25" ry="18.91" style="fill: rgb(104, 225, 253);"/><polygon class="cls-24_team-presentation-6-80" points="337.76 272.41 307 273.78 316.45 284.78 350.31 281.93 337.76 272.41"/><path class="cls-24_team-presentation-6-80" d="M209.9,272.41c1.72.17,30.25,8.42,30.25,8.42l-16.5,12.72-32.65-8.76,18.9-12.37Z"/></g><g id="data_prsentation_team-presentation-6-80"><circle class="cls-24_team-presentation-6-80" cx="237.32" cy="189.67" r="46.32"/><polygon class="cls-26_team-presentation-6-80 targetColor" points="222.05 221.04 214.64 222.64 214.64 189.79 222.05 188.19 222.05 221.04" style="fill: rgb(104, 225, 253);"/><polygon class="cls-26_team-presentation-6-80 targetColor" points="231.93 218.91 224.52 220.51 224.52 195.63 231.93 194.03 231.93 218.91" style="fill: rgb(104, 225, 253);"/><polygon class="cls-26_team-presentation-6-80 targetColor" points="241.81 216.78 234.4 218.38 234.4 173.27 241.81 171.67 241.81 216.78" style="fill: rgb(104, 225, 253);"/><polygon class="cls-26_team-presentation-6-80 targetColor" points="251.7 214.65 244.28 216.25 244.28 161.35 251.7 159.75 251.7 214.65" style="fill: rgb(104, 225, 253);"/><polyline class="cls-27_team-presentation-6-80" points="209.76 223.61 256.84 214.15 256.84 159.85"/></g><g id="_character_3_team-presentation-6-80"><rect class="cls-20_team-presentation-6-80" x="340.69" y="331.47" width="4.14" height="38.33"/><rect class="cls-14_team-presentation-6-80" x="340.69" y="331.47" width="4.14" height="38.33"/><path class="cls-20_team-presentation-6-80" d="M321.18,374.12c0,2.84,9.66,5.14,21.59,5.14,11.92,0,21.59-2.3,21.59-5.14,0-.26.15-2.95,0-3.2-1.54-2.48-10.74-1.94-21.59-1.94-10.43,0-19.57-.4-21.59,1.94-.29.33,0,2.84,0,3.2Z"/><ellipse class="cls-20_team-presentation-6-80" cx="342.76" cy="370.93" rx="21.59" ry="5.14"/><path class="cls-24_team-presentation-6-80" d="M323.5,253.17c-13.95-3.23-20.96-20.15-34.58-24.58-.45-.14-.95-.27-1.37-.07-.4.19-.61.62-.79,1.03-1.04,2.28-2.08,4.56-3.12,6.84,6.23,7.22,12.46,14.45,18.69,21.67,1.45,1.69,2.92,3.38,4.69,4.73,4.01,3.06,9.17,4.06,14.13,4.97,2.94.54,6,1.07,8.87.24,3.76-1.09,8.06-6.26,6.82-10.46-1.34-4.55-9.49-3.47-13.34-4.36Z"/><path class="cls-25_team-presentation-6-80" d="M283.49,223.85c-2.74-2.33-5.57-4.7-8.98-5.83-.47-.16-1.04-.27-1.43.03-.23.17-.35.46-.41.74-.26,1.2.39,2.41,1.19,3.33s1.77,1.72,2.37,2.79c-1.28-.23-2.6-.17-3.86.17-.24.07-.49.15-.64.35-.21.29-.11.71.06,1.03.81,1.59,2.72,2.28,4.49,2.49.33.04.69.07.95.29.59.5.2,1.45.31,2.22.11.74.71,1.32,1.38,1.66s1.4.51,2.09.8c1.13.47,2.16,1.29,3.38,1.34,2.3.1,4.61-2.96,4.63-5.14.02-2.35-3.94-4.93-5.54-6.28Z"/><path class="cls-20_team-presentation-6-80" d="M303.01,323.46c-.07,2.31.41,4.5,1.27,6.58.04,0,.09,0,.13,0,2.39-.07,4.78-.02,7.17.15,3.98.28,7.93.91,11.85,1.66,1.81.34,3.61.71,5.41,1.07,1.72.35,3.44.71,5.17,1.04,3.28.64,6.43,1.19,9.48,1.63,3.9-1.66,7.44-4.18,10.32-7.43.31-.35.61-.7.9-1.06.37-.47.73-.96,1.06-1.47.96-1.48,1.7-3.11,1.89-4.8.08-.7.06-1.4-.07-2.1-.46-2.4-2.21-4.31-4.19-5.78-.21-.16-.43-.32-.65-.46-4.86-3.33-9.85-4.45-14.87-4.33-.44.01-.88.04-1.32.07-2.78.18-5.58.71-8.37,1.42-4.34,1.11-8.68,2.67-12.97,4.04-3.17.85-6.21,2.14-9.02,3.85-.81.52-1.51,1.18-2.07,1.96-.74,1.18-1.12,2.56-1.1,3.95Z"/><path class="cls-20_team-presentation-6-80" d="M303.38,330.36c.57,2.88,1.06,5.78,1.5,8.68,1.02,6.75,1.7,13.56,2.04,20.38.03.64.06,1.3-.18,1.89-.72,1.79-3.17,1.88-5.1,1.87s-4.45.77-4.41,2.7c.03,1.5,1.66,2.38,3.08,2.86,4.24,1.44,8.73,2.12,13.2,2.01.55-.01,1.11-.04,1.61-.26,3.04-1.33.63-4.85.31-6.92-.46-2.99.69-6.3,1.42-9.15,1.69-6.65,6.18-12.67,6-19.74-.02-.91-.1-1.91.47-2.61.85-1.04,4.4.64,5.51.87,1.72.35,3.44.71,5.17,1.04,9.24,1.8,17.78,3.86,27.29,2.1.56-.1,1.13-.22,1.59-.56.61-.44.92-1.18,1.15-1.9,1.33-4.12.97-8.76-.99-12.63-2.32-4.57-6-6.38-10.3-8.56-4.96-2.51-9.14-4.41-14.87-4.25-.44.01-.88.04-1.32.07-2.79.2-5.6.74-8.4,1.46-6.97,1.81-23.05,4.35-25.73,12.45-.84,2.55.22,4.6.73,7.08.08.38.16.76.23,1.14Z"/><path class="cls-15_team-presentation-6-80" d="M303.38,330.36c.57,2.88,1.06,5.78,1.5,8.68,1.02,6.75,1.7,13.56,2.04,20.38.03.64.06,1.3-.18,1.89-.72,1.79-3.17,1.88-5.1,1.87s-4.45.77-4.41,2.7c.03,1.5,1.66,2.38,3.08,2.86,4.24,1.44,8.73,2.12,13.2,2.01.55-.01,1.11-.04,1.61-.26,3.04-1.33.63-4.85.31-6.92-.46-2.99.69-6.3,1.42-9.15,1.69-6.65,6.18-12.67,6-19.74-.02-.91-.1-1.91.47-2.61.85-1.04,4.4.64,5.51.87,1.72.35,3.44.71,5.17,1.04,9.24,1.8,17.78,3.86,27.29,2.1.56-.1,1.13-.22,1.59-.56.61-.44.92-1.18,1.15-1.9,1.33-4.12.97-8.76-.99-12.63-2.32-4.57-6-6.38-10.3-8.56-4.96-2.51-9.14-4.41-14.87-4.25-.44.01-.88.04-1.32.07-2.79.2-5.6.74-8.4,1.46-6.97,1.81-23.05,4.35-25.73,12.45-.84,2.55.22,4.6.73,7.08.08.38.16.76.23,1.14Z"/><path class="cls-20_team-presentation-6-80" d="M290.23,331.13c-2.42,2.62-3.92,5.97-5.36,9.19-1.67,3.75-11.28,43.78-11.62,43.69,2.42.64,4.84,1.28,7.26,1.92,8.36-11.97,15.36-24.89,20.82-38.43,1.57-3.9,1.66-4.27,5.9-5.09,3.72-.72,7.44-1.51,11.13-2.4,7.19-1.73,14.3-3.85,21.16-6.63,4-1.62,8.36-3.65,11.9-6.06.54-.41,1.02-.91,1.43-1.45.19-.24.36-.5.51-.76.64-1.09.99-2.32.9-3.55-.02-.33-.08-.65-.17-.98-.27-.71-.64-1.39-1.09-2-.7-.95-1.59-1.75-2.62-2.34-2.58-1.86-5.63-2.98-8.8-3.25-2.13-.12-4.25.31-6.37.2-1.89-.1-3.2-1.15-4.89-1.4-1.2-.18-2.5-.02-3.81.34-2.89.79-5.86,2.53-8.13,3.66l-15.24,7.62-.12.05-3.05,1.53c-3.19,1.61-6.86,3.22-9.39,5.8-.11.12-.22.23-.33.35Z"/><path class="cls-20_team-presentation-6-80" d="M262.52,382.11c-1.32.18-2.69.42-3.77,1.2s-1.78,2.25-1.27,3.48c.37.89,1.25,1.45,2.1,1.9,5.2,2.75,11.25,3.56,17.13,3.32.83-.04,1.72-.11,2.37-.64.65-.54.89-1.41,1.1-2.23.4-1.56.79-3.22.33-4.76-.97-3.22-4.54-2.51-7.08-2.65-3.65-.19-7.29-.1-10.91.39Z"/><path class="cls-25_team-presentation-6-80" d="M316.01,240.57c-.61.76-1.56,1.57-1.19,2.46.21.48.74.71,1.16,1.03,1.05.94,1.69,2.25,1.79,3.66.1,1.39.43,2.76.98,4.05.65,1.23,2.13,2.17,3.43,1.67.77-.3,1.49-1.08,2.28-.82.61.2.86.9,1.21,1.43.99,1.24,2.61,1.8,4.15,1.45,1.51-.38,2.94-1.04,4.19-1.96.55-.29,1.01-.73,1.32-1.27.18-.52.18-1.08,0-1.59-.44-1.59-1.67-2.83-2.7-4.14-1.9-2.44-3.18-5.3-3.72-8.35-.37-2.12-.47-4.5-1.96-6.02-2.04-2.07-6.46-1.62-8.57.25-2.37,1.99-.49,5.73-2.38,8.15Z"/><path class="cls-20_team-presentation-6-80" d="M317.77,230.59c.33.5.76.93,1.3,1.18,1.06.5,1.99,1.13,3.02,1.7.97.53,1.75,1.45,2.07,2.51.6,1.96-.26,4.24.55,6.15.27.37.89.07,1.1-.34s.3-.92.67-1.19c.62-.45,1.5.13,1.85.81.79,1.68.13,3.68-1.51,4.57.16.62.98.79,1.59.65.59-.24,1.22-.38,1.86-.43,1.46.13,2.2,2.16,3.66,2.23.98,0,1.75-.88,2.33-1.7.51-.73,1.02-1.46,1.54-2.19.26-.37.49-.85.81-1.16.36-.35,1.01-.43,1.29-.84.34-.49-.15-1.24.17-1.75.13-.2.36-.31.57-.44.97-.6,1.4-1.93.98-2.99-.05-.13-.12-.28-.09-.42.04-.2.25-.31.42-.42,1.08-.69,1.22-2.29.65-3.44-.57-1.14-1.65-1.94-2.67-2.7-2.25-1.66-4.59-3.59-5.25-6.31-.17-.72-.23-1.49-.61-2.13s-1.26-1.06-1.88-.64c.18-1.41.08-2.86-.29-4.24-.09-.33-.2-.67-.42-.93-.41-.49-1.13-.61-1.75-.48s-1.17.49-1.7.83c-.02-.69-.91-.96-1.6-.94-2.59.08-5.09,1.62-6.32,3.9-.11.2-.21.4-.36.56-.26.26-.62.38-.95.54-1.07.54-1.73,1.69-1.96,2.87s-.12,2.39,0,3.58c.09.92.19,1.84.51,2.71.11.3.26.6.44.88Z"/><path class="cls-24_team-presentation-6-80" d="M331.51,251.03c-1.52.84-2.99,1.78-4.39,2.82-.44.3-.8.69-1.07,1.15-.28.51-.28,1.13,0,1.64.49.69,1.41.33,2.11,0,3.24-1.69,6.84-2.17,10.3-2.5.5.03.97-.23,1.21-.66.12-.5.02-1.02-.28-1.44-2.17-3.55-5.07-2.67-7.89-1.01Z"/><path class="cls-24_team-presentation-6-80" d="M325.3,296.76c-2.49-5.06-3.68-10.32-5.41-15.6-4.02,3.13-4.42,8.88-8.06,12.71-.55.58-1.13,1.13-1.83,1.52-2.5,1.39-5.93.79-8.62.6-1.37-.1-2.66-.66-3.67-1.6-.63-.81-.97-1.8-.98-2.82-.22-3.47,1.75-6.66,3.66-9.57l13.17-20.18c.44-.76,1-1.45,1.65-2.04.92-.66,1.96-1.14,3.07-1.39,8.33-2.47,16.79-4.45,25.35-5.92,1.28-.29,2.6-.37,3.91-.24,3.66.54,6.06,3.99,7.9,7.19,9.64,16.72,16.47,35.69,15.4,54.96-.01,1.04-.18,2.08-.49,3.07-.63,1.5-1.66,2.79-2.98,3.74-4.3,3.39-9.96,4.65-15.44,4.7-8.17.08-18.96-2.39-25.06-8.26-3.45-3.31,0-5.32,1.65-8.6,2.08-4.14-1.38-8.51-3.23-12.26Z"/><path class="cls-6_team-presentation-6-80" d="M366.05,283.23c-.33-1.26-1.31-5.25-2.51-7.44-4.77,3.4-8.26,10.03-10.02,15.61-1.76,5.58-3.2,11.45-6.78,16.08-1.29-.45-2.59-.9-3.88-1.35-.24.82-.48,1.64-.72,2.45-.57,1.93,1.06,3.92.89,5.87-.17,2.04-2.13,3.66-3.98,4.17-2.23.61-4.61.11-6.85-.48-1.41-.38-2.86-.81-3.99-1.74s-1.88-2.48-1.45-3.88c-.97.49-1.34,1.77-1.07,2.83.27,1.05,1.04,1.91,1.86,2.63,2.71,2.38,6.16,3.7,9.53,4.98,1.62.62,3.25,1.23,4.93,1.68,3.81,1.01,7.79,1.1,11.73,1.19,2.39.06,3.83-.32,4.89-2.68,1.51-3.38,1.63-7.18,1.99-10.87.85-8.69,3.1-20.63,5.45-29.04Z"/><path class="cls-20_team-presentation-6-80" d="M352.99,318.58c-.01,1.05.01,2.12.07,3.2.05,1.08.15,2.18.29,3.31.03.24.06.49.09.74.1.77.22,1.54.36,2.33,0,.02.01.05.01.09.08.43.16.87.25,1.32-.37,2.42-.06,4.86.88,7.08h0c2.21.07,4.38.04,6.52-.1,4.21-.27,8.33-.98,12.45-2.22.01,0,.02,0,.02,0,4.13-2.2,8.02-4.77,11.38-8.01.94-.81,1.69-1.81,2.19-2.93.37-1.22.49-2.5.37-3.76-.12-7.08.81-14.13,2.76-20.91.42-1.48.9-2.94,1.42-4.39.59-1.64,1.24-3.26,1.95-4.85,1.67-3.76,3.7-7.44,4.46-11.48.42-2.21.45-4.47.07-6.69-.02-.4-.17-.77-.43-1.07-.39-.31-.89-.45-1.39-.38-5.09.14-9.71,3.06-14.74,3.91-2.58.44-5.26.32-7.77,1.07-3.57,1.05-6.32,3.64-8.48,6.74-1.13,1.61-2.11,3.36-2.97,5.09-1.31,2.65-2.53,5.19-3.63,7.66-.66,1.48-1.28,2.94-1.85,4.39-1.88,4.75-3.25,9.35-3.89,14.17,0,.03-.01.06-.01.09-.24,1.83-.38,3.7-.4,5.62Z"/><path class="cls-3_team-presentation-6-80" d="M352.99,318.58c-.01,1.05.01,2.12.07,3.2.05,1.08.15,2.18.29,3.31.03.24.06.49.09.74.1.77.22,1.54.36,2.33,0,.02.01.05.01.09.08.43.16.87.25,1.32-.37,2.42-.06,4.86.88,7.08h0c2.21.07,4.38.04,6.52-.1,4.21-.27,8.33-.98,12.45-2.22.01,0,.02,0,.02,0,4.13-2.2,8.02-4.77,11.38-8.01.94-.81,1.69-1.81,2.19-2.93.37-1.22.49-2.5.37-3.76-.12-7.08.81-14.13,2.76-20.91.42-1.48.9-2.94,1.42-4.39.59-1.64,1.24-3.26,1.95-4.85,1.67-3.76,3.7-7.44,4.46-11.48.42-2.21.45-4.47.07-6.69-.02-.4-.17-.77-.43-1.07-.39-.31-.89-.45-1.39-.38-5.09.14-9.71,3.06-14.74,3.91-2.58.44-5.26.32-7.77,1.07-3.57,1.05-6.32,3.64-8.48,6.74-1.13,1.61-2.11,3.36-2.97,5.09-1.31,2.65-2.53,5.19-3.63,7.66-.66,1.48-1.28,2.94-1.85,4.39-1.88,4.75-3.25,9.35-3.89,14.17,0,.03-.01.06-.01.09-.24,1.83-.38,3.7-.4,5.62Z"/></g><g id="_character_2_team-presentation-6-80"><rect class="cls-20_team-presentation-6-80" x="146.97" y="330.93" width="4.14" height="38.33"/><rect class="cls-4_team-presentation-6-80" x="146.97" y="330.93" width="4.14" height="38.33"/><path class="cls-20_team-presentation-6-80" d="M170.63,373.58c0,2.84-9.66,5.14-21.59,5.14s-21.59-2.3-21.59-5.14c0-.26-.15-2.95,0-3.2,1.54-2.48,10.74-1.94,21.59-1.94,10.43,0,19.57-.4,21.59,1.94.29.33,0,2.84,0,3.2Z"/><ellipse class="cls-20_team-presentation-6-80" cx="149.04" cy="370.38" rx="21.59" ry="5.14"/><path class="cls-20_team-presentation-6-80" d="M188.8,322.91c.07,2.31-.41,4.5-1.27,6.58-.04,0-.09,0-.13,0-2.39-.07-4.78-.02-7.17.15-3.98.28-7.93.91-11.85,1.66-1.81.34-3.61.71-5.41,1.07-1.72.35-3.44.71-5.17,1.04-3.28.64-6.43,1.19-9.48,1.63-3.9-1.66-7.44-4.18-10.32-7.43-.31-.35-.61-.7-.9-1.06-.37-.47-.73-.96-1.06-1.47-.96-1.48-1.7-3.11-1.89-4.8-.08-.7-.06-1.4.07-2.1.46-2.4,2.21-4.31,4.19-5.78.21-.16.43-.32.65-.46,4.86-3.33,9.85-4.45,14.87-4.33.44.01.88.04,1.32.07,2.78.18,5.58.71,8.37,1.42,4.34,1.11,8.68,2.67,12.97,4.04,3.17.85,6.21,2.14,9.02,3.85.81.52,1.51,1.18,2.07,1.96.74,1.18,1.12,2.56,1.1,3.95Z"/><path class="cls-25_team-presentation-6-80" d="M188.43,329.82c-.57,2.88-1.06,5.78-1.5,8.68-.6,3.99-.86,8.05-1.52,12.03-.64,3.87-.51,7.89-1.19,11.81-.25,1.48-.56,2.96-.51,4.46.07,2.08.82,4.06,1.56,6-.11.27-.49.24-.77.17-1.57-.42-3.15-.85-4.57-1.62s-2.7-1.94-3.28-3.45c-.86-2.24-.09-4.59-.2-6.89-.11-2.44-.91-4.78-1.51-7.13-1.69-6.65-6.18-12.67-6-19.74.02-.91.1-1.91-.47-2.61-.85-1.04-4.4.64-5.51.87-1.72.35-3.44.71-5.17,1.04-9.24,1.8-17.78,3.86-27.29,2.1-.56-.1-1.13-.22-1.59-.56-.61-.44-.92-1.18-1.15-1.9-1.33-4.12-.97-8.76.99-12.63,2.32-4.57,6-6.38,10.3-8.56,4.96-2.51,9.14-4.41,14.87-4.25.44.01.88.04,1.32.07,2.79.2,5.6.74,8.4,1.46,6.97,1.81,23.05,4.35,25.73,12.45.84,2.55-.22,4.6-.73,7.08-.08.38-.16.76-.23,1.14Z"/><path class="cls-20_team-presentation-6-80" d="M176.04,366.76c.08-.09.17-.17.28-.22.44-.19.85.31,1.1.73,1.07,1.76,2.71,3.16,4.61,3.94.24.1.52.19.76.1.29-.11.43-.43.66-.63.33-.29.83-.33,1.25-.21s.79.38,1.15.64c1.08.76,2.16,1.53,3.09,2.46.49.49.96,1.2.67,1.83-.16.34-.51.55-.86.69-1.3.51-2.77.29-4.1-.14-2.45-.81-4.62-2.3-7.01-3.25-.17-.07-.35-.13-.53-.11-.14.01-.26.07-.4.09-.44.05-.79-.33-1.06-.68-1.32-1.76-1.1-3.62.38-5.22Z"/><path class="cls-25_team-presentation-6-80" d="M199.92,331.27c1.11,2.63,1.49,5.67,1.48,8.55-.04,7.48-2.08,14.78-4.11,21.97-.85,3.03-1.57,6.15-2.57,9.14-.73,2.18-1.71,3.8-.3,6.05.28.44.64.84.84,1.32s.21,1.1-.17,1.46c-.54.51-1.41.18-2.09-.1-1.6-.64-3.38-.87-4.88-1.72-3-1.7-1.85-3.84-1.37-6.44.58-3.15.98-6.35,1.31-9.53.67-6.46.79-13.02-.49-19.42-.15-.75-.34-1.53-.88-2.07-.56-.56-1.38-.75-2.16-.88-11.02-1.94-21.74-2.53-32.22-6.78-4-1.62-8.36-3.65-11.9-6.06-.54-.41-1.02-.91-1.43-1.45-.19-.24-.36-.5-.51-.76-.64-1.09-.99-2.32-.9-3.55.02-.33.08-.65.17-.98.27-.71.64-1.39,1.09-2,.7-.95,1.59-1.75,2.62-2.34,2.58-1.86,5.63-2.98,8.8-3.25,2.13-.12,4.25.31,6.37.2,1.89-.1,3.2-1.15,4.89-1.4,1.2-.18,2.5-.02,3.81.34,2.89.79,5.86,2.53,8.13,3.66,3.15,1.57,6.3,3.15,9.45,4.72,4.38,2.19,9.73,3.67,13.61,6.7,1.55,1.21,2.65,2.81,3.41,4.6Z"/><path class="cls-26_team-presentation-6-80 targetColor" d="M189.92,315.35c8.04,4.85,13.28,14.04,13.34,23.44-7.73,5.83-16.76,9.91-26.24,11.88-1.1.23-2.28.42-3.32,0-.93-.37-1.61-1.17-2.31-1.89-8.72-8.95-24.06-8.05-33.21-16.56-3.47-3.22-5.73-8.78-3-12.64,1.01-1.44,2.55-2.39,4.06-3.29,7.12-4.24,15.51-10.57,24.12-9.11,8.5,1.45,19.13,3.69,26.55,8.17Z" style="fill: rgb(104, 225, 253);"/><path class="cls-5_team-presentation-6-80" d="M193.28,345.43c-4.36-4.66-5.16-11.52-5.75-17.87-1.24,1.08-2.65,1.97-4.17,2.62l-.75-1.97c-.07-.2-.17-.41-.36-.5-.19-.09-.4-.02-.6.04-6.2,2.08-12.72,3.19-19.26,3.22-2.5.01-5.16-.18-7.21-1.62s-3.12-4.53-1.61-6.53c-5.29,1.44-10.69,2.48-16.13,3.13-.43.05-.91.13-1.18.47-.42.54-.05,1.32.35,1.87,4.31,6.07,11.05,10.36,18.37,11.69,2.07.37,13,4.46,17.91,10.85.63.83,1.87,1.19,2.87.92l17.51-6.3Z"/><path class="cls-20_team-presentation-6-80" d="M127.33,327.88c-1.64.04-3.56.27-4.41,1.68-.52.86-.46,1.99,0,2.88s1.27,1.56,2.16,2.01c1.13.57,2.4.81,3.64,1.05,5.24.99,10.47,1.98,15.72,2.9,2.66.47,5.32.91,7.99,1.33,2.12.33,4.08,1.37,6.23,1.78,2.34.45,5.03.71,6.84-.84,1.13-.96,1.69-2.54,1.41-4-.1-.5-.29-1-.66-1.37-.27-.27-.61-.45-.95-.62-3.77-1.86-7.95-2.71-12.07-3.54-2.84-.57-5.68-1.14-8.51-1.71-2.56-.52-5.29-1.41-7.89-1.51-3.17-.11-6.34-.13-9.51-.05Z"/><path class="cls-9_team-presentation-6-80" d="M127.33,327.88c-1.64.04-3.56.27-4.41,1.68-.52.86-.46,1.99,0,2.88s1.27,1.56,2.16,2.01c1.13.57,2.4.81,3.64,1.05,5.24.99,10.47,1.98,15.72,2.9,2.66.47,5.32.91,7.99,1.33,2.12.33,4.08,1.37,6.23,1.78,2.34.45,5.03.71,6.84-.84,1.13-.96,1.69-2.54,1.41-4-.1-.5-.29-1-.66-1.37-.27-.27-.61-.45-.95-.62-3.77-1.86-7.95-2.71-12.07-3.54-2.84-.57-5.68-1.14-8.51-1.71-2.56-.52-5.29-1.41-7.89-1.51-3.17-.11-6.34-.13-9.51-.05Z"/><path class="cls-25_team-presentation-6-80" d="M173.46,231.82c-.55-.42-1.2-.77-1.95-1.06-2.08-.78-5-.83-6.66.86-1.49,1.53-1.58,3.9-1.96,6.02-.54,3.05-1.82,5.91-3.72,8.35-1.03,1.31-2.26,2.54-2.7,4.14-.18.52-.18,1.08,0,1.59.31.54.76.99,1.32,1.27,1.26.92,2.68,1.58,4.19,1.96,1.12.26,2.09.06,2.9-.62.73-.61,1.17-1.01,2.24-.84.89.14,1.74.53,2.64.46,1.38-.1,2.47-1.3,2.96-2.6s.5-2.72.65-4.1c.41-3.67,1.81-7.18,2.03-10.87.12-2.03-.58-3.52-1.93-4.56Z"/><path class="cls-24_team-presentation-6-80" d="M152.41,251.49c-.3.41-.41.94-.28,1.44.24.43.71.69,1.21.66,3.46.33,7.07.81,10.3,2.5.7.33,1.62.69,2.11,0,.28-.51.28-1.13,0-1.64-.26-.46-.63-.85-1.07-1.15-1.4-1.03-2.87-1.97-4.39-2.82-2.82-1.66-5.72-2.54-7.89,1.01Z"/><path class="cls-24_team-presentation-6-80" d="M163.28,308.48c1.65,3.28,5.1,5.29,1.65,8.6-6.1,5.88-16.88,8.34-25.06,8.26-5.47-.05-11.13-1.31-15.44-4.7-1.32-.95-2.35-2.25-2.98-3.74-.31-.99-.47-2.03-.49-3.07-1.08-19.27,5.76-38.24,15.4-54.96,1.84-3.2,4.24-6.65,7.9-7.19,1.31-.13,2.63-.04,3.91.24,8.56,1.47,17.02,3.45,25.35,5.92,1.11.25,2.15.72,3.07,1.39.65.59,1.21,1.28,1.65,2.04l13.17,20.18c1.91,2.91,3.88,6.1,3.66,9.57,0,1.02-.35,2.01-.98,2.82-1,.94-2.3,1.51-3.67,1.6-4.8.77-9.71.44-14.36-.98,2.6-1.99,1.78-6.14.07-8.94-1.16-1.88-2.6-3.59-4.26-5.04-1.11,5.45-2.91,10.74-5.37,15.73-1.85,3.75-5.31,8.12-3.23,12.26Z"/><path class="cls-20_team-presentation-6-80" d="M175.89,232.42c.42-1.19.44-2.55.13-3.79-.46-1.85-1.56-3.47-2.78-4.94-2.44-2.94-5.62-5.52-9.4-6.14-10.2-1.68-22.07,8.74-25.95,17.34-2.44,5.41-3.17,11.41-4.54,17.19-1.36,5.78-3.58,11.69-8.14,15.49-1.85,1.54-4.1,2.77-5.22,4.9-1.36,2.6-.57,5.92,1.23,8.24,1.64,2.12,3.74,2.95,5.86,4.34,1.99,1.3,3.33,3.27,4.41,5.36,2.35,4.53,3.26,9.72,6.15,13.98,1.39-.77,2.79-1.53,4.18-2.3,3.5-1.93,7.06-3.9,9.8-6.8s4.6-6.93,3.92-10.87c-.41-2.39-1.69-4.52-2.43-6.83-2.35-7.24,2.78-10.14,7.23-14.43,3.06-2.95,4.54-7.45,3.84-11.64-.16-.95-.42-1.91-.25-2.85.26-1.4,1.41-2.43,2.31-3.52,1.9-2.31.4-5.29,2.65-7.42,1.74-1.65,4.41-1.84,6.04-3.71.41-.47.72-1.02.93-1.6Z"/><path class="cls-8_team-presentation-6-80" d="M125.76,282.68c.33-1.26,1.31-5.25,2.51-7.44,4.77,3.4,8.26,10.03,10.02,15.61,1.76,5.58,3.2,11.45,6.78,16.08,1.29-.45,2.59-.9,3.88-1.35.24.82.48,1.64.72,2.45.57,1.93-1.06,3.92-.89,5.87.17,2.04,2.13,3.66,3.98,4.17,2.23.61,4.61.11,6.85-.48,1.41-.38,2.86-.81,3.99-1.74,1.13-.93,1.88-2.48,1.45-3.88.97.49,1.34,1.77,1.07,2.83-.27,1.05-1.04,1.91-1.86,2.63-2.71,2.38-6.16,3.7-9.53,4.98-1.62.62-3.25,1.23-4.93,1.68-3.81,1.01-7.79,1.1-11.73,1.19-2.39.06-3.83-.32-4.89-2.68-1.51-3.38-1.63-7.18-1.99-10.87-.85-8.69-3.1-20.63-5.45-29.04Z"/><path class="cls-20_team-presentation-6-80" d="M138.82,318.04c.01,1.05-.01,2.12-.07,3.2-.05,1.08-.15,2.18-.29,3.31-.03.24-.06.49-.09.74-.1.77-.22,1.54-.36,2.33,0,.02-.01.05-.01.09-.08.43-.16.87-.25,1.32.37,2.42.06,4.86-.88,7.08h0c-2.21.07-4.38.04-6.52-.1-4.21-.27-8.33-.98-12.45-2.22-.01,0-.02,0-.02,0-4.13-2.2-8.02-4.77-11.38-8.01-.94-.81-1.69-1.81-2.19-2.93-.37-1.22-.49-2.5-.37-3.76.12-7.08-.81-14.13-2.76-20.91-.42-1.48-.9-2.94-1.42-4.39-.59-1.64-1.24-3.26-1.95-4.85-1.67-3.76-3.7-7.44-4.46-11.48-.42-2.21-.45-4.47-.07-6.69.02-.4.17-.77.43-1.07.39-.31.89-.45,1.39-.38,5.09.14,9.71,3.06,14.74,3.91,2.58.44,5.26.32,7.77,1.07,3.57,1.05,6.32,3.64,8.48,6.74,1.13,1.61,2.11,3.36,2.97,5.09,1.31,2.65,2.53,5.19,3.63,7.66.66,1.48,1.28,2.94,1.85,4.39,1.88,4.75,3.25,9.35,3.89,14.17,0,.03.01.06.01.09.24,1.83.38,3.7.4,5.62Z"/><path class="cls-7_team-presentation-6-80" d="M138.82,318.04c.01,1.05-.01,2.12-.07,3.2-.05,1.08-.15,2.18-.29,3.31-.03.24-.06.49-.09.74-.1.77-.22,1.54-.36,2.33,0,.02-.01.05-.01.09-.08.43-.16.87-.25,1.32.37,2.42.06,4.86-.88,7.08h0c-2.21.07-4.38.04-6.52-.1-4.21-.27-8.33-.98-12.45-2.22-.01,0-.02,0-.02,0-4.13-2.2-8.02-4.77-11.38-8.01-.94-.81-1.69-1.81-2.19-2.93-.37-1.22-.49-2.5-.37-3.76.12-7.08-.81-14.13-2.76-20.91-.42-1.48-.9-2.94-1.42-4.39-.59-1.64-1.24-3.26-1.95-4.85-1.67-3.76-3.7-7.44-4.46-11.48-.42-2.21-.45-4.47-.07-6.69.02-.4.17-.77.43-1.07.39-.31.89-.45,1.39-.38,5.09.14,9.71,3.06,14.74,3.91,2.58.44,5.26.32,7.77,1.07,3.57,1.05,6.32,3.64,8.48,6.74,1.13,1.61,2.11,3.36,2.97,5.09,1.31,2.65,2.53,5.19,3.63,7.66.66,1.48,1.28,2.94,1.85,4.39,1.88,4.75,3.25,9.35,3.89,14.17,0,.03.01.06.01.09.24,1.83.38,3.7.4,5.62Z"/><path class="cls-20_team-presentation-6-80" d="M185.91,374.23c.08-.09.17-.17.28-.22.44-.19.85.31,1.1.73,1.07,1.76,2.71,3.16,4.61,3.94.24.1.52.19.76.1.29-.11.43-.43.66-.63.33-.29.83-.33,1.25-.21s.79.38,1.15.64c1.08.76,2.16,1.53,3.09,2.46.49.49.96,1.2.67,1.83-.16.34-.51.55-.86.69-1.3.51-2.77.29-4.1-.14-2.45-.81-4.62-2.3-7.01-3.25-.17-.07-.35-.13-.53-.11-.14.01-.26.07-.4.09-.44.05-.79-.33-1.06-.68-1.32-1.76-1.1-3.62.38-5.22Z"/></g></svg>