<svg width="174" height="156" viewBox="0 0 174 156" fill="none" xmlns="http://www.w3.org/2000/svg">
<g clip-path="url(#clip0_117_34)">
<path d="M86.1385 28.9056C78.0985 33.9753 68.9862 39.7215 64.1036 49.228C55.6231 65.8138 81.4568 83.9053 82.561 84.6673C82.8175 84.8443 83.1248 84.9327 83.431 84.9327C83.7562 84.9327 84.0818 84.8331 84.3462 84.6344C84.859 84.2499 85.0044 83.5966 84.6965 83.0646C84.6031 82.9032 75.3301 66.7547 75.6747 55.1698C75.7967 51.1348 82.095 46.5574 88.7628 41.7114C94.8698 37.2727 101.792 32.242 105.843 26.3569C114.734 13.4028 104.852 0.66494 104.751 0.53758C104.358 0.0433748 103.634 -0.135477 103.014 0.107969C102.395 0.352938 102.052 0.95287 102.194 1.5461C102.214 1.6305 104.136 10.0539 98.7879 18.7324C96.585 22.3186 91.7443 25.3709 86.1385 28.9056Z" fill="#DB380E"/>
<path d="M120.012 34.6178C120.579 34.2348 120.746 33.5362 120.403 32.9786C120.059 32.421 119.311 32.1751 118.647 32.4012C117.282 32.8668 85.2012 43.9535 85.2012 57.3491C85.2012 66.5833 89.6009 71.4614 92.8134 75.0238C94.0736 76.4211 95.1614 77.6277 95.52 78.6578C96.5293 81.6264 94.1381 86.992 93.1325 88.8091C92.8427 89.3314 92.9847 89.9645 93.4778 90.346C93.7443 90.5523 94.077 90.6571 94.41 90.6571C94.6935 90.6571 94.9782 90.5815 95.2243 90.4279C95.7759 90.0843 108.705 81.8887 106.386 72.0147C105.522 68.2615 103.465 65.5193 101.65 63.0995C98.8382 59.3503 96.8073 56.6422 99.8883 51.6405C103.498 45.8063 119.846 34.7287 120.012 34.6178Z" fill="#DB380E"/>
<path d="M36.5055 90.8691C35.9556 92.3453 36.2152 93.8096 37.2555 95.1052C40.7331 99.4339 53.0515 101.817 71.9428 101.817C71.9438 101.817 71.9445 101.817 71.9452 101.817C74.5049 101.817 77.2073 101.772 79.9754 101.683C110.179 100.714 121.382 92.2777 121.844 91.919C122.348 91.5281 122.482 90.8773 122.169 90.3508C121.856 89.8246 121.181 89.5601 120.535 89.7195C109.898 92.3234 90.0348 93.2478 76.2575 93.2478C60.8411 93.2478 52.99 92.2521 51.0678 91.5169C52.054 90.3027 58.1373 88.1345 65.6754 86.8052C66.3958 86.6784 66.891 86.0818 66.8196 85.4267C66.7483 84.7717 66.1345 84.272 65.4001 84.272C60.9814 84.272 38.8218 84.5901 36.5055 90.8691Z" fill="#73A1FB"/>
<path d="M137.573 82.1799C131.344 82.1799 125.436 84.9794 125.187 85.0979C124.611 85.3746 124.319 85.9669 124.477 86.5361C124.636 87.1043 125.206 87.5038 125.859 87.5044C125.991 87.5044 139.148 87.601 140.339 94.3404C141.395 100.154 127.891 109.575 122.599 112.714C122.027 113.053 121.805 113.709 122.071 114.275C122.297 114.758 122.82 115.059 123.385 115.059C123.484 115.059 123.584 115.05 123.683 115.031C124.939 114.79 154.407 108.968 151.291 93.586C149.39 84.1589 142.782 82.1799 137.573 82.1799Z" fill="#73A1FB"/>
<path d="M117.364 110.832C117.467 110.339 117.238 109.838 116.781 109.55L109.715 105.113C109.371 104.897 108.935 104.829 108.531 104.925C108.457 104.941 101.068 106.683 90.3406 107.751C86.0831 108.179 81.3143 108.405 76.549 108.405C65.8242 108.405 58.8118 107.275 57.7906 106.447C57.6554 106.214 57.6982 106.108 57.7223 106.049C57.9079 105.587 58.9022 105.037 59.5432 104.82C60.2511 104.585 60.6327 103.895 60.4125 103.248C60.193 102.6 59.4484 102.219 58.7136 102.377C51.6258 103.911 48.1601 106.055 48.4122 108.751C48.8602 113.53 61.2074 115.983 71.6458 116.631C73.1469 116.724 74.7703 116.77 76.4699 116.77C76.4709 116.77 76.4716 116.77 76.4726 116.77C93.8298 116.77 116.082 111.887 116.304 111.838C116.847 111.719 117.261 111.326 117.364 110.832Z" fill="#73A1FB"/>
<path d="M64.0955 121.089C64.6307 120.777 64.8679 120.184 64.678 119.637C64.4887 119.091 63.9187 118.732 63.2785 118.74C62.3286 118.762 53.9841 119.1 53.3999 123.863C53.2231 125.287 53.6778 126.587 54.7521 127.728C57.7482 130.912 65.8358 132.804 79.4728 133.513C81.086 133.6 82.7247 133.643 84.3441 133.643C101.681 133.643 113.358 128.776 113.847 128.569C114.321 128.368 114.633 127.95 114.661 127.481C114.689 127.012 114.428 126.567 113.981 126.321L105.051 121.434C104.741 121.265 104.37 121.209 104.017 121.274C103.961 121.284 98.291 122.339 89.7347 123.38C88.1157 123.577 86.0882 123.678 83.7093 123.678C75.1622 123.678 65.6553 122.426 63.8321 121.606C63.8056 121.453 63.8392 121.258 64.0955 121.089Z" fill="#73A1FB"/>
<path d="M76.2639 148.338C115.976 148.308 137.29 141.976 141.396 137.991C142.85 136.582 143.007 135.247 142.883 134.376C142.578 132.231 140.399 130.917 140.152 130.775C139.556 130.431 138.756 130.521 138.291 131.002C137.827 131.483 137.816 132.185 138.282 132.666C138.532 132.955 138.677 133.438 137.944 134.095C136.303 135.47 119.747 139.642 92.1823 140.895C88.4063 141.071 84.4457 141.161 80.4114 141.161C55.7308 141.161 37.6684 138.13 35.2973 136.364C36.2112 135.187 42.6002 133.306 49.3948 132.242C50.1604 132.122 50.6777 131.476 50.5591 130.787C50.4405 130.099 49.7326 129.625 48.9587 129.715C48.7671 129.738 48.1166 129.773 47.3635 129.814C36.1527 130.428 23.1975 131.796 22.5215 136.975C22.3163 138.553 22.8393 139.985 24.0767 141.232C27.1043 144.282 35.8067 148.337 76.2626 148.337C76.2633 148.338 76.2633 148.338 76.2639 148.338Z" fill="#73A1FB"/>
<path d="M149.196 139.114C148.635 138.881 147.972 138.999 147.553 139.404C147.495 139.46 141.524 145.058 123.572 148.345C116.699 149.579 103.799 150.206 85.2287 150.206C66.6239 150.206 48.9203 149.549 48.7439 149.543C48.0044 149.51 47.372 149.992 47.2714 150.645C47.1705 151.297 47.6394 151.912 48.3535 152.064C48.5377 152.103 67.0908 156 92.4582 156C104.625 156 116.465 155.114 127.648 153.366C148.502 150.089 149.962 140.818 150.014 140.425C150.086 139.876 149.757 139.347 149.196 139.114Z" fill="#73A1FB"/>
</g>
<defs>
<clipPath id="clip0_117_34">
<rect width="174" height="156" fill="white"/>
</clipPath>
</defs>
</svg>
